<svg xmlns="http://www.w3.org/2000/svg" xmlns:xlink="http://www.w3.org/1999/xlink" width="2380" zoomAndPan="magnify" viewBox="0 0 1784.88 1784.99993" height="2380" preserveAspectRatio="xMidYMid meet" version="1.0"><defs><clipPath id="85c2250b5e"><path d="M 220.726562 722.5 L 236.476562 722.5 L 236.476562 866.5 L 220.726562 866.5 Z M 220.726562 722.5 " clip-rule="nonzero"/></clipPath><clipPath id="8c291fe15f"><path d="M 43 0.699219 L 1251 0.699219 L 1251 585 L 43 585 Z M 43 0.699219 " clip-rule="nonzero"/></clipPath><clipPath id="17f4a30ac3"><path d="M 0.574219 406 L 983 406 L 983 1129 L 0.574219 1129 Z M 0.574219 406 " clip-rule="nonzero"/></clipPath><clipPath id="70663fd572"><path d="M 3 855 L 1209 855 L 1209 1444.191406 L 3 1444.191406 Z M 3 855 " clip-rule="nonzero"/></clipPath><clipPath id="c94889f6cb"><path d="M 273 324 L 1258.320312 324 L 1258.320312 1046 L 273 1046 Z M 273 324 " clip-rule="nonzero"/></clipPath><clipPath id="c482aebefa"><rect x="0" width="1259" y="0" height="1445"/></clipPath></defs><g transform="matrix(1, 0, 0, 1, 263, 170)"><g clip-path="url(#c482aebefa)"><g clip-path="url(#85c2250b5e)"><path fill="#ffffff" d="M 363.976562 794.515625 C 363.976562 834.074219 331.910156 866.140625 292.351562 866.140625 C 252.796875 866.140625 220.726562 834.074219 220.726562 794.515625 C 220.726562 754.960938 252.796875 722.890625 292.351562 722.890625 C 331.910156 722.890625 363.976562 754.960938 363.976562 794.515625 Z M 577.855469 722.890625 C 538.296875 722.890625 506.230469 754.960938 506.230469 794.515625 C 506.230469 834.074219 538.296875 866.140625 577.855469 866.140625 C 617.410156 866.140625 649.480469 834.074219 649.480469 794.515625 C 649.480469 754.960938 617.410156 722.890625 577.855469 722.890625 Z M 863.050781 722.890625 C 823.492188 722.890625 791.425781 754.960938 791.425781 794.515625 C 791.425781 834.074219 823.492188 866.140625 863.050781 866.140625 C 902.605469 866.140625 934.671875 834.074219 934.671875 794.515625 C 934.671875 754.960938 902.605469 722.890625 863.050781 722.890625 Z M 863.050781 722.890625 " fill-opacity="1" fill-rule="nonzero"/></g><g clip-path="url(#8c291fe15f)"><path fill="#04d3bc" d="M 43.070312 346.671875 L 631.921875 0.921875 L 1248.359375 361.710938 L 1250.84375 584.671875 L 621.980469 221.398438 L 228.5 456.910156 Z M 43.070312 346.671875 " fill-opacity="1" fill-rule="evenodd"/></g><g clip-path="url(#17f4a30ac3)"><path fill="#04d3bc" d="M 0.574219 406.824219 L 3.058594 772.582031 L 626.949219 1128.402344 L 982.769531 927.9375 L 982.769531 830.253906 L 872.535156 775.066406 L 624.464844 910.414062 L 198.425781 667.316406 L 198.425781 529.617188 Z M 0.574219 406.824219 " fill-opacity="1" fill-rule="evenodd"/></g><g clip-path="url(#70663fd572)"><path fill="#04d3bc" d="M 1030.371094 998.160156 L 1208.214844 1110.878906 L 624.464844 1444.078125 L 3.058594 1080.804688 L 8.027344 855.230469 L 629.4375 1221.117188 Z M 1030.371094 998.160156 " fill-opacity="1" fill-rule="evenodd"/></g><g clip-path="url(#c94889f6cb)"><path fill="#04d3bc" d="M 281.199219 527 L 273.617188 614.746094 L 386.335938 674.898438 L 621.851562 534.585938 L 1052.863281 787.621094 L 1065.417969 938.003906 L 1258.296875 1045.757812 L 1245.875 669.929688 L 639.503906 324.050781 Z M 281.199219 527 " fill-opacity="1" fill-rule="evenodd"/></g></g></g></svg>